<svg version="1.1" id="Layer_1" xmlns="http://www.w3.org/2000/svg" xmlns:xlink="http://www.w3.org/1999/xlink" x="0px" y="0px"
	 width="100%" viewBox="0 0 133 141" enable-background="new 0 0 133 141" xml:space="preserve">
<path fill="#121212" opacity="1.000000" stroke="none" 
	d="
M71.000000,142.000000 
	C48.353577,142.000000 26.207006,141.964066 4.060936,142.052795 
	C1.716762,142.062180 0.918633,141.721146 0.924832,139.066025 
	C1.029807,94.107368 1.006930,49.148384 0.977557,4.189492 
	C0.976223,2.148726 0.824744,0.895538 3.805354,0.905288 
	C46.266090,1.044177 88.727562,1.043572 131.188309,0.906112 
	C134.152878,0.896515 134.025375,2.128159 134.023941,4.183156 
	C133.992569,49.142044 133.970779,94.101021 134.074081,139.059692 
	C134.080139,141.698990 133.305115,142.065796 130.945358,142.054428 
	C111.130608,141.958801 91.315208,142.000000 71.000000,142.000000 
z"/>
<path fill="#F0F0F0" opacity="1.000000" stroke="none" 
	d="
M25.389931,90.719818 
	C25.444172,87.255447 24.624800,85.237213 21.304735,83.917038 
	C16.717337,82.092918 15.877703,78.586685 18.102354,74.198395 
	C18.397224,73.616730 18.837078,73.095642 19.269789,72.598755 
	C24.584520,66.495674 26.694834,60.283508 25.273632,51.482769 
	C23.565872,40.907543 30.618546,32.842983 38.805882,26.416790 
	C55.659031,13.188848 88.683983,14.052613 103.521072,30.446238 
	C113.285400,41.234917 114.497047,53.788731 111.103203,67.244774 
	C110.045250,71.439377 108.109604,75.317535 106.202278,79.208946 
	C101.158829,89.498833 100.443130,99.970734 104.389595,110.947556 
	C107.170540,118.682571 103.898201,123.329750 95.570221,124.158279 
	C82.226868,125.485786 69.392601,124.176392 58.563156,115.135429 
	C57.233379,114.025269 56.449280,114.920334 55.491451,115.231537 
	C52.339008,116.255814 49.275444,117.587509 46.082272,118.446007 
	C37.431606,120.771767 30.941320,117.265503 29.453014,108.502190 
	C28.450125,102.597054 26.835733,96.912636 25.389931,90.719818 
z"/>
<path fill="#131313" opacity="1.000000" stroke="none" 
	d="
M40.441143,32.352547 
	C54.956516,20.158350 79.365158,20.485298 93.531067,29.578844 
	C105.382492,37.186642 110.148987,52.612988 104.908943,67.516266 
	C103.430069,71.722366 101.639801,75.832840 99.771744,79.885475 
	C95.257019,89.679947 94.429367,99.570663 98.297066,109.789726 
	C101.413689,118.024338 99.262352,118.186798 92.148392,118.780090 
	C82.209122,119.608994 72.765442,117.252495 63.437866,112.655617 
	C68.547852,107.217911 75.156937,104.175690 80.219742,99.248665 
	C81.050430,98.440254 81.937645,97.664879 82.895432,97.017258 
	C85.038391,95.568283 85.171371,93.602318 83.700287,91.903397 
	C82.231590,90.207245 80.449768,90.967659 78.889435,92.315163 
	C70.709213,99.379601 62.354813,106.194557 52.200127,110.340500 
	C51.740738,110.528061 51.318195,110.803848 50.866234,111.011925 
	C39.254204,116.357903 34.538559,113.497406 34.291714,100.635399 
	C34.232231,97.536148 32.318977,95.439987 31.518045,92.805473 
	C31.048553,91.261169 31.028130,89.533867 31.057774,87.893433 
	C31.132427,83.762115 32.421013,79.246574 25.378633,79.570869 
	C22.652283,79.696426 22.890388,76.977348 24.225189,75.126953 
	C26.551126,71.902557 28.980066,68.747810 31.475029,65.651863 
	C32.835392,63.963825 33.468998,62.220066 32.611889,60.170376 
	C27.940437,48.999130 31.871367,40.200726 40.441143,32.352547 
z"/>
<path fill="#DDDDDD" opacity="1.000000" stroke="none" 
	d="
M58.025719,59.891800 
	C59.155846,61.369205 60.198532,62.801559 58.798775,64.083969 
	C57.332005,65.427780 56.099754,64.010193 54.957695,63.090137 
	C54.828892,62.986374 54.725346,62.851883 54.601311,62.741497 
	C44.733215,53.959759 44.832878,51.874458 55.307652,43.495132 
	C56.499054,42.542068 57.532883,41.894337 58.724598,43.082199 
	C59.864254,44.218166 59.528622,45.489159 58.509712,46.604649 
	C58.173519,46.972710 57.803978,47.310207 57.465370,47.676186 
	C51.867332,53.726665 51.867893,53.727184 58.025719,59.891800 
z"/>
<path fill="#ECECEC" opacity="1.000000" stroke="none" 
	d="
M81.047836,60.191994 
	C81.654358,59.562401 82.010933,59.213348 82.364571,58.861340 
	C87.695427,53.555103 87.695045,53.555298 82.447365,48.221527 
	C81.747604,47.510284 80.996292,46.840061 80.370331,46.068512 
	C79.677292,45.214283 79.569931,44.094696 80.223869,43.286465 
	C81.103508,42.199268 82.549118,42.395042 83.373917,43.171299 
	C86.396416,46.015930 89.284897,49.006626 92.152618,52.010319 
	C93.345093,53.259335 92.730499,54.387825 91.649269,55.444992 
	C89.032707,58.003311 86.467651,60.614239 83.875687,63.197803 
	C83.061249,64.009598 82.297600,65.071022 80.930649,64.188148 
	C79.136566,63.029415 79.711609,61.751530 81.047836,60.191994 
z"/>
<path fill="#F0F0F0" opacity="1.000000" stroke="none" 
	d="
M65.651466,68.450439 
	C63.093426,68.331886 62.765682,66.978996 63.390198,65.142975 
	C66.189865,56.912270 69.002205,48.685871 71.815735,40.459888 
	C72.288521,39.077572 73.276382,38.013153 74.717125,38.405148 
	C76.300438,38.835930 76.426819,40.380463 75.868454,41.693039 
	C72.161331,50.407513 70.591721,59.914639 65.651466,68.450439 
z"/>
</svg>